<svg xmlns="http://www.w3.org/2000/svg" height="512" preserveAspectRatio="none" style="display: block;" version="1.1" viewBox="0 0 2048 2048" width="512">
<path d="M 468.746 758.629 C 453.418 749.478 439.285 741.354 425.193 730.136 C 239.512 582.315 331.948 297.365 569.593 269.001 C 763.551 251.988 899.772 467.013 814.324 643.995 C 787.289 699.991 753.564 726.52 703.512 758.629 L 703.512 890.874 L 873.522 890.874 L 873.522 960.868 L 1405.81 960.829 C 1450.6 960.831 1484.81 959.032 1529.33 968.129 C 1638.24 990.383 1723.46 1076.73 1749.35 1184.14 C 1759.37 1225.75 1757.61 1262.79 1757.59 1304.74 L 1757.56 1738.77 L 1205.73 1738.77 L 1205.73 1579.75 C 1205.94 1571.6 1222.26 1575.37 1230.72 1575.43 L 1502.91 1575.58 L 1502.95 1306.09 C 1502.96 1215.43 1476.28 1217.1 1388.79 1217.13 L 873.522 1217.16 C 866.743 1276.69 816.09 1332.89 758.202 1347.68 C 731.583 1354.48 703.81 1353.24 676.516 1353.23 L 449.548 1353.25 C 374.585 1353.05 310.433 1296.59 294.617 1224.56 C 291.14 1208.73 291.362 1181.05 291.346 1164.42 L 291.377 1096.03 C 291.38 1028.69 290.239 957.928 291.375 890.874 L 468.746 890.874 L 468.746 758.629 z" fill="rgb(0,0,0)" transform="translate(0,0)"></path>
<metadata><recraft-signature>{"signed_by": "recraft", "signature_b64": "cx47nR7ZdUCWfB9mMXyhq/QQ3M8fBdCAoo9kbK4QOpIclKku/3eMZPNod91vWcuUSgvis1hQ4PG5AjIAoyEWBg==", "signing_algo": "Ed25519", "generation_timestamp": 1775388001, "identifier": "abe1d2ca-c257-478f-805b-aea86fbd6d78"}</recraft-signature></metadata></svg>