<svg xmlns="http://www.w3.org/2000/svg" height="512" preserveAspectRatio="none" style="display: block;" version="1.1" viewBox="0 0 2048 2048" width="512">
<path d="M 597.064 478.215 L 597.064 374.233 L 778.993 374.233 L 778.993 478.215 C 832.676 479.057 888.917 478.218 942.779 478.216 L 1268.09 478.215 L 1268.09 374.233 L 1449.95 374.233 L 1449.95 478.215 L 1654.04 478.215 C 1664.6 507.54 1687.59 558.7 1701.56 585.635 L 1551.24 585.635 L 343.841 585.635 C 360.459 552.99 378.253 511.851 393.463 478.215 L 597.064 478.215 z" fill="rgb(0,0,0)" transform="translate(0,0)"></path>
<path d="M 510.923 901.312 L 583.53 737.527 C 589.44 723.997 604.36 695.857 607.811 684.167 C 620.599 684.718 636.865 684.219 650.082 684.204 L 729.68 684.167 C 718.9 709.53 705.764 736.208 694.208 761.437 L 630.835 901.312 L 1415.95 901.312 C 1410.43 884.134 1396.28 854.688 1388.53 837.113 L 1345.99 738.504 C 1338.64 721.005 1330.2 701.827 1323.92 684.167 C 1363.41 683.626 1404.3 684.116 1443.9 684.167 C 1448.8 699.914 1468.05 742.246 1475.12 758.645 L 1536.39 901.312 L 1739.71 901.312 C 1751.27 938.926 1772.72 974.22 1787.02 1010.99 L 1582.29 1010.99 C 1632.69 1103.48 1670.88 1218.57 1717.09 1315.84 L 1597.95 1315.84 C 1594.23 1304.92 1586.86 1289.55 1582.29 1277.75 C 1539.17 1195.14 1504.18 1096.75 1465.03 1010.99 L 583.758 1010.99 C 534.516 1110.62 497.01 1215.69 449.128 1315.84 L 328.989 1315.84 C 361.614 1218.99 422.741 1108.32 463.128 1010.99 L 261.847 1010.99 C 276.789 977.833 297.685 935.081 309.798 901.312 L 510.923 901.312 z" fill="rgb(0,0,0)" transform="translate(0,0)"></path>
<path d="M 1762.17 1629.77 L 1659.83 1629.84 C 1634.03 1629.85 1583.66 1638.02 1582.74 1598.84 C 1581.7 1554.61 1582.43 1510.17 1582.2 1465.93 C 1582.03 1433.69 1587.7 1419.43 1622.33 1417.17 L 1714.69 1417.12 C 1733.82 1417.12 1797.31 1410.99 1798.26 1444.23 C 1799.71 1495.28 1798.64 1546.84 1798.76 1597.98 C 1798.81 1617.03 1779.9 1628.91 1762.17 1629.77 z" fill="rgb(0,0,0)" transform="translate(0,0)"></path>
<path d="M 430.069 1629.77 C 398.342 1626.71 283.395 1636.88 263.813 1622.77 C 242.286 1607.26 250.672 1548.96 250.661 1525.52 C 250.644 1489 237.134 1431.23 284.398 1425.19 L 380.309 1425.09 C 400.253 1425.07 460.792 1418.02 462.149 1450.94 C 464.141 1499.31 463.089 1548.56 462.885 1596.95 C 462.804 1616.16 447.239 1626.52 430.069 1629.77 z" fill="rgb(0,0,0)" transform="translate(0,0)"></path>
<metadata><recraft-signature>{"signed_by": "recraft", "signature_b64": "E9wkrVerIzXwJ58UoUQQxuxG2ZTf419UoV9ZR7/ZBIVN6Ad4nLRp8sjiiSSmTwcBkH8Xwe6YlqbE8CYFtiFeAg==", "signing_algo": "Ed25519", "generation_timestamp": 1775387944, "identifier": "6edc7115-5ce8-4487-acc7-a9fb08b6e2b3"}</recraft-signature></metadata></svg>