<svg xmlns="http://www.w3.org/2000/svg" height="512" preserveAspectRatio="none" style="display: block;" version="1.1" viewBox="0 0 2048 2048" width="512">
<path d="M 1098.08 394.815 C 1085.79 394.186 1058.54 395.522 1049.9 389.571 C 1025.96 373.073 1033.91 342.126 1061.62 335.913 C 1089.73 334.366 1190.07 332.734 1216.09 336.879 C 1248.68 342.071 1253.09 390.27 1216.33 394.249 C 1200.02 396.015 1181.76 394.929 1165.31 394.815 C 1146.27 432.1 1128.89 468.28 1111.19 506.247 C 1130.72 537.87 1160.49 577.929 1183.68 607.283 C 1340.19 544.607 1491.26 725.541 1404.12 870.88 C 1376 917.793 1337.17 942.969 1285.05 956.427 C 1297.54 970.253 1319.32 987.801 1333.76 1000.44 L 1412.92 1070.37 C 1443.26 1097.03 1471.91 1127.74 1504.48 1151.7 C 1599.67 1165.27 1710.88 1167.47 1784.79 1238.62 C 1826.06 1278.01 1845.67 1334.76 1844.4 1391.27 C 1842.47 1477.76 1856.16 1481.45 1761.42 1481.47 L 1687.69 1481.41 C 1684.92 1658.72 1471.49 1737.74 1356.46 1606.4 C 1326.35 1572.01 1307.13 1526.74 1310.22 1481.41 L 1001.75 1481.41 L 741.166 1481.41 C 720.747 1743.01 372.598 1720.34 358.824 1481.41 L 284.607 1481.49 C 255.13 1481.5 207.933 1487.14 208.173 1444.46 C 208.704 1350.24 178.037 1177.47 316.73 1170.72 C 326.123 1156.36 350.82 1127.48 362.349 1113.48 L 456.742 1000.66 C 489.299 961.784 499.41 930.015 548.534 919.204 C 535.429 904.984 523.226 892.153 512.542 875.861 C 427.299 745.868 546.349 566.837 708.193 600.929 C 719.919 568.177 737.37 533.533 748.018 501.088 C 764.732 420.78 708.389 390.928 850.976 404.072 C 873.608 406.158 886.589 434.926 866.372 452.471 C 851.539 465.344 824.56 461.135 805.278 461.007 C 805.125 466.493 805.269 472.602 805.278 478.143 L 1061.62 478.143 C 1071.62 451.796 1087.12 422.604 1098.08 394.815 z M 836.732 535.985 C 840.58 544.842 857.73 566.549 863.936 574.708 L 909.387 633.773 C 922.868 651.024 934.933 668.179 949.113 684.926 L 972.142 684.926 C 978.676 670.635 985.674 653.338 992.38 639.748 L 1015.63 589.408 C 1023.8 571.413 1031.4 552.152 1042.54 535.985 L 836.732 535.985 z M 782.308 562.486 C 775.337 581.065 768.043 599.179 760.046 617.348 C 849.276 671.05 888.548 778.737 831.371 871.571 C 819.839 890.295 807.522 902.555 794.142 919.204 L 1103.75 919.204 C 1114.66 919.707 1122.05 919.629 1132.84 919.204 C 1090 888.119 1070.51 847.938 1061.62 797.006 L 1034.41 797.006 C 999.892 881.181 845.54 838.488 901.943 719.954 C 880.993 691.324 806.214 583.535 782.308 562.486 z M 1087.38 572.467 C 1080.82 587.39 1074.29 602.185 1067.65 617.548 C 1043.03 674.584 1023.77 679.371 1042.54 741.49 C 1050.08 741.476 1057.94 741.339 1065.44 741.49 L 1068.87 729.725 C 1082.07 688.308 1097.79 662.292 1132.84 635.072 C 1123.23 622.324 1096.21 580.127 1087.38 572.467 z M 657.945 654.078 C 588.713 659.051 537.798 720.247 543.384 788.035 C 554.241 919.8 728.962 945.329 786.944 832.174 C 817.194 768.501 791.869 712.799 741.166 671.192 C 718.404 708.853 713.156 755.986 687.529 792.388 C 674.693 809.719 639.34 799.077 638.735 777.053 C 638.398 764.791 677.481 671.354 685.358 654.078 C 675.481 653.27 667.827 652.708 657.945 654.078 z M 1238.04 654.078 C 1230.04 655.386 1223.6 656.644 1215.71 658.487 C 1229.59 681.177 1331.94 794.339 1262.27 796.832 C 1215.98 798.49 1168.41 795.343 1122.23 797.006 C 1131.14 841.41 1154.01 872.352 1195.26 892.036 C 1300.68 935.085 1402.87 836.367 1361.19 730.627 C 1342.55 683.343 1289.32 648.037 1238.04 654.078 z M 1161.83 684.926 C 1144.2 704.264 1134.31 716.537 1126.64 741.49 C 1140.47 741.526 1154.85 741.76 1168.63 741.49 L 1202.82 741.49 C 1198.22 733.805 1167.04 686.862 1161.83 684.926 z M 642.315 1004.12 C 617.931 1007.73 610.743 1016.79 596.623 1035.8 L 536.135 1118.51 C 526.565 1131.48 506.305 1157.35 499.085 1170.72 L 749.334 1170.72 L 890.869 1170.72 L 890.869 1004.12 L 723.831 1004.16 C 699.474 1004.15 665.468 1002.78 642.315 1004.12 z M 949.113 1004.12 L 949.113 1170.72 L 1393.32 1170.72 C 1392.21 1166.07 1227.53 1021.61 1208.38 1004.12 L 949.113 1004.12 z M 538.585 1395.06 C 491.698 1401.15 458.509 1443.93 464.252 1490.86 C 469.995 1537.8 512.52 1571.31 559.494 1565.92 C 606.974 1560.48 640.927 1517.39 635.122 1469.95 C 629.317 1422.52 585.977 1388.89 538.585 1395.06 z M 1488.44 1396.4 C 1440.91 1402.77 1407.55 1446.48 1413.95 1494 C 1420.34 1541.52 1464.06 1574.86 1511.58 1568.44 C 1559.06 1562.03 1592.37 1518.34 1585.98 1470.86 C 1579.59 1423.37 1535.93 1390.04 1488.44 1396.4 z" fill="rgb(0,0,0)" transform="translate(0,0)"></path>
<metadata><recraft-signature>{"signed_by": "recraft", "signature_b64": "FcKCmc12dyDX8MF11NRsWDsnIKZ249PdPYh6SGQaX/I/Zs1zYp0GYamaZ7UxiSZtUyjWhUh9COmE5awirQVRCA==", "signing_algo": "Ed25519", "generation_timestamp": 1775388688, "identifier": "d70825c4-eaa8-4670-8c24-2e7885adac30"}</recraft-signature></metadata></svg>