<svg xmlns="http://www.w3.org/2000/svg" height="512" preserveAspectRatio="none" style="display: block;" version="1.1" viewBox="0 0 2048 2048" width="512">
<path d="M 639.788 689.212 C 526.482 748.679 459.561 671.838 389.787 601.535 L 328.328 539.459 C 286.951 497.438 261.773 484.909 311.616 435.817 C 339.669 408.186 471.17 270.447 495.368 262.185 C 526.773 259.929 549.721 297.474 571.458 318.678 C 607.688 354.754 709.492 445.996 722.538 490.815 C 736.049 537.235 727.891 574.119 705.911 615.779 L 1319.59 1229.1 C 1350.51 1260.11 1388.34 1295.46 1416.8 1327.64 C 1470.72 1296.9 1536.74 1292.49 1585.63 1337.43 C 1595.28 1346.29 1603.97 1355.99 1613.18 1365.25 L 1686.01 1439.13 C 1705.25 1458.6 1784.68 1517.68 1759.43 1547.42 C 1739.11 1571.35 1711.19 1595.61 1688.86 1617.86 L 1609.55 1697.06 C 1593.77 1712.6 1580.25 1732.42 1558.01 1737.95 C 1524.45 1742.38 1496.62 1707.8 1475.89 1686.58 L 1374.59 1584.84 C 1319.39 1529.22 1302.13 1466.59 1344.39 1395.05 C 1284.05 1332.75 1221.14 1272.05 1159.93 1210.72 L 815.072 863.916 C 757.386 806.101 695.838 748.221 639.788 689.212 z" fill="rgb(0,0,0)" transform="translate(0,0)"></path>
<path d="M 967.552 721.364 C 1012.66 696.67 1055.93 666.807 1098.62 638.186 L 1211.44 564.041 C 1295.78 509.424 1380.75 453.627 1463.58 396.759 C 1484.13 382.654 1506.42 370.186 1525.76 355 L 1526.53 355.855 C 1528.31 368.879 1533.49 386.562 1536.08 400.296 C 1562.71 541.543 1528.04 683.856 1467.31 811.524 C 1428.25 893.644 1355.18 983.335 1295.1 1049.61 C 1288.46 1040.45 1261.6 1016.17 1252.11 1006.44 C 1216.17 969.616 1178.77 931.053 1141.5 895.58 C 1081.87 839.91 1028.36 776.253 967.552 721.364 z" fill="rgb(0,0,0)" transform="translate(0,0)"></path>
<path d="M 377.946 1499.04 C 390.232 1476.07 410.462 1447.23 425.379 1425.22 L 747.947 947.849 L 1077.87 1282.39 C 949.892 1386.79 852.671 1451.52 689.312 1499.04 C 599.624 1522.51 505.306 1527.84 414.746 1507.07 C 403.029 1504.38 389.791 1499.58 377.946 1499.04 z" fill="rgb(0,0,0)" transform="translate(0,0)"></path>
<metadata><recraft-signature>{"signed_by": "recraft", "signature_b64": "hU8dMu56P0wA87rPhy7CivHrM2UVEHEd8lg7QwFEAaKtO5nisrGO0CZRlLBWCTCMt/lywkOURRQUTZ4qSc33BQ==", "signing_algo": "Ed25519", "generation_timestamp": 1775387955, "identifier": "13d9a06a-5cca-4af4-9a31-d945db049287"}</recraft-signature></metadata></svg>