<svg xmlns="http://www.w3.org/2000/svg" height="512" preserveAspectRatio="none" style="display: block;" version="1.1" viewBox="0 0 2048 2048" width="512">
<path d="M 1442.92 496.242 C 1437.34 474.547 1428.24 452.993 1421.45 431.536 C 1409.73 393.978 1400.07 366.889 1449.88 364.85 C 1478.5 363.678 1507.14 363.332 1535.71 361.123 C 1586.6 360.047 1609.51 354.156 1604.32 418.565 C 1602.58 440.262 1613.02 479.459 1582.92 488.27 C 1537.36 500.301 1540.93 450.558 1541.19 423.223 C 1525.23 422.82 1504.97 424.633 1488.81 425.718 C 1492.76 469.268 1530.51 572.813 1544.76 616.226 C 1743.98 581.124 1857.58 830.827 1707.49 966.181 C 1659.48 1009.48 1603.32 1019.25 1541.19 1015.08 C 1587.74 1055 1631.74 1106.06 1678.97 1148.02 C 1703.4 1148.93 1728.07 1147.41 1752.93 1147.92 C 1822.36 1149.34 1826.07 1149.85 1825.98 1213.98 L 1825.9 1277.19 L 1726.01 1277.19 L 1726.01 1336.21 L 1825.9 1336.21 L 1825.98 1417.26 C 1826.17 1501.53 1816.17 1490.13 1738.53 1490.09 L 1631.72 1490.05 C 1611.1 1680.84 1320.11 1689.99 1285.37 1492.33 L 761.49 1492.33 C 756.361 1513.13 752.122 1524.64 742.352 1543.75 C 657.176 1693.19 435.628 1650.06 410.676 1492.33 L 296.049 1492.37 C 272.407 1492.39 229.258 1502.51 221.73 1470.99 C 218.069 1455.66 219.245 1337.28 222.243 1321.12 C 242.697 1210.87 353.612 1176.33 449.758 1158.9 C 517.63 1146.6 500.078 1148.81 550.363 1103.38 C 613.259 1046.55 672.709 993.183 757.298 973.197 C 600.311 860.914 670.847 629.864 858.944 613.123 C 889.457 610.407 932.012 616.75 958.907 632.014 C 975.107 593.163 1001.22 552.492 1023.42 516.86 C 1018.94 506.619 1014.72 497.369 1009.78 487.32 C 995.535 487.057 981.938 488.663 967.602 489.06 C 943.504 491.028 926.123 460.966 941.035 441.984 C 955.323 423.797 1070.69 419.428 1099.92 420.992 C 1117.3 421.923 1156.26 477.965 1072.36 482.765 C 1073.16 487.861 1074.12 491.333 1075.47 496.242 L 1442.92 496.242 z M 1104 556.315 C 1119.2 608.262 1152.22 681.118 1173.89 734.654 C 1189.07 736.019 1197.32 739.157 1211.17 745.538 C 1246.15 713.581 1276.85 681.5 1310.92 649.484 C 1343.5 618.781 1374.58 587.814 1406.36 556.315 L 1104 556.315 z M 1470.48 578.81 C 1446.52 600.665 1422.07 625.491 1398.89 648.307 L 1339.28 705.971 C 1309.02 735.511 1273.75 767.267 1244.79 797.482 C 1262.31 900.632 1124.78 930.076 1093.45 841.662 L 1075.47 841.662 C 1063.32 897.984 1045.76 921.759 1006.67 961.194 C 1017.5 961.159 1028.42 961.046 1039.25 961.194 L 1308.64 961.202 C 1351.76 961.206 1400.23 962.31 1442.92 961.194 C 1362.56 899.144 1353.86 767.368 1415.53 689.778 C 1437.22 662.483 1457.96 647.42 1488.81 632.014 C 1486.77 625.689 1473.15 581.604 1470.48 578.81 z M 1050.17 592.592 C 1040.25 607.775 1015.78 647.364 1009.78 662.885 C 1046.91 690.165 1067.69 731.125 1074.6 776.114 L 1075.47 782.032 L 1093.45 782.032 C 1100.2 771.978 1107.7 762.804 1115.77 753.78 C 1108.9 734.33 1059.8 606.531 1050.17 592.592 z M 862.246 673.379 C 820.429 678.284 787.583 693.292 761.335 726.504 C 670.133 841.9 799.826 999.931 941.465 933.917 C 981.908 908.863 997.95 886.315 1013.34 841.662 L 922.809 841.741 C 895.028 841.759 863.271 850.576 854.606 816.54 C 861.268 786.645 910.708 714.284 927.559 681.961 C 907.577 676.211 883.15 670.082 862.246 673.379 z M 1574.65 677.332 C 1571.68 677.781 1566.81 678.146 1564.58 679.728 C 1563.51 708.549 1609.45 788.879 1610.7 815.253 C 1612.05 843.752 1577.76 857.249 1559.61 836.005 C 1545.41 819.374 1517.68 716.851 1507.53 689.167 C 1440.5 720.756 1420.45 806.952 1449.91 872.651 C 1508.6 987.145 1667.48 973.257 1706.6 852.146 C 1734.23 766.57 1665.85 666.256 1574.65 677.332 z M 979.616 715.575 C 968.037 739.507 953.869 759.204 941.465 782.032 L 979.616 782.032 L 1013.34 782.032 C 1007.7 757.392 998.907 732.874 979.616 715.575 z M 829.948 1019.95 C 750.756 1025.25 700.466 1050.66 641.212 1102.65 C 632.347 1110.43 555.825 1168.25 574.124 1180.9 C 584.117 1182.8 616.778 1182.08 628.456 1182.08 L 736.5 1182 L 993.459 1182 L 993.459 1019.95 L 829.948 1019.95 z M 1053.72 1019.95 L 1053.72 1182 L 1320.99 1182.01 C 1342.33 1182.01 1471.43 1183.73 1481.1 1179.32 C 1482.75 1176.93 1485 1174.35 1484.36 1171.26 C 1482.28 1161.21 1373.87 1032.81 1360.34 1019.95 L 1053.72 1019.95 z" fill="rgb(0,0,0)" transform="translate(0,0)"></path>
<metadata><recraft-signature>{"signed_by": "recraft", "signature_b64": "Jc7gnybHfFfDKJkqIDS3XfK3WAkG+V1FBSEG0ez8FfgJIFGCTmq4jxfXt7/rOkQqMAL8ok4HbaQ2DWbBTiJsBw==", "signing_algo": "Ed25519", "generation_timestamp": 1775388682, "identifier": "7edaf873-0a0e-4d4a-bf3d-2060d084c583"}</recraft-signature></metadata></svg>