<svg xmlns="http://www.w3.org/2000/svg" height="512" preserveAspectRatio="none" style="display: block;" version="1.1" viewBox="0 0 2048 2048" width="512">
<path d="M 925.15 1419.76 C 918.24 1410.91 908.098 1401.5 900.12 1393.44 L 739.986 1233.61 C 674.728 1168.37 590.334 1094.14 535.171 1025.49 C 272.446 698.57 512.876 235.894 920.747 214.124 L 938.003 213.951 C 1204.66 213.887 1442.07 414.855 1464.98 684.124 C 1467.36 712.102 1466.95 737.512 1466.93 765.678 L 1466.91 1156.66 L 1530.24 1156.54 C 1577.22 1156.47 1622.46 1159.6 1622.11 1219.1 L 1622.15 1545.5 C 1622.18 1575.21 1624.35 1608.68 1616.86 1637.19 C 1577.58 1786.79 1395.3 1844.95 1281.83 1735.44 C 1215.61 1671.52 1225.45 1596.43 1225.45 1514.01 L 1225.44 1335.49 C 1172.54 1386.88 1119.1 1441.32 1066.97 1493.65 C 987.635 1574.54 906.217 1654.03 826.509 1734.72 C 804.488 1757.02 777.896 1794.52 742.257 1763.21 C 683.666 1711.73 653.288 1694.69 713.849 1634.14 L 864.271 1481.51 C 885.126 1460.27 904.707 1441.7 925.15 1419.76 z M 920.747 315.022 C 800.957 326.184 704.967 368.121 625.301 459.885 C 505.137 598.297 496.398 799.905 603.234 948.221 C 627.935 982.511 651.234 1004.58 681.318 1034.25 L 1001.69 1354.93 L 1029.21 1382.67 C 1079.08 1337.23 1133.02 1280.92 1180.99 1232.59 L 1217.88 1195.87 C 1272.8 1140.43 1288.23 1157.03 1364.55 1156.66 L 1364.58 771.684 C 1364.6 738.783 1365.4 706.516 1360.96 673.804 C 1331.66 457.979 1134.27 306.493 920.747 315.022 z M 1370.97 1606.65 C 1370.71 1648.58 1361.89 1693.49 1420.29 1689.37 C 1437.5 1688.15 1443.57 1690.29 1458.82 1678.55 C 1474.34 1661.18 1469.16 1628.75 1469.01 1606.65 L 1370.97 1606.65 z" fill="rgb(0,0,0)" transform="translate(0,0)"></path>
<metadata><recraft-signature>{"signed_by": "recraft", "signature_b64": "3SKdYmBkCcgfJimdWMDsZ6TE0wchNQm2Sl9Rn8rN5G9h54KeIDus9zVh6h/XhB86e/8pBnEcQ9bS52SbUVgBAg==", "signing_algo": "Ed25519", "generation_timestamp": 1775387990, "identifier": "c38afe9d-42a7-4e42-962a-459a5a91e5e2"}</recraft-signature></metadata></svg>