<svg xmlns="http://www.w3.org/2000/svg" height="512" preserveAspectRatio="none" style="display: block;" version="1.1" viewBox="0 0 2048 2048" width="512">
<path d="M 493.733 506.145 L 493.718 405.704 C 493.701 388.88 492.983 369.5 493.733 353.07 L 1245.82 353.07 L 1245.82 506.145 L 838.957 506.145 L 838.957 599.91 L 1122.05 599.91 L 1122.05 742.89 C 1168.19 741.433 1223.86 742.666 1270.56 742.89 C 1283.81 761.472 1298.17 779.876 1311.67 798.399 L 1401.61 922.813 C 1436.37 970.194 1470.97 1016.07 1505.04 1064.17 L 1657.59 1111.07 C 1757.97 1141.36 1811.67 1160.71 1812.46 1281.99 L 1812.53 1385.67 C 1812.73 1470.22 1816.74 1487.76 1714.05 1487.71 L 1638.96 1487.66 C 1616.75 1630.98 1468.7 1704.87 1342.46 1630.23 C 1283.23 1591.38 1261.02 1547.22 1245.82 1481.88 C 1197.02 1481.09 1146.19 1481.88 1097.21 1481.89 L 800.384 1481.88 C 761.192 1724.06 434.1 1705.11 408.88 1481.88 L 325.807 1481.94 C 281.523 1481.92 238.228 1488.8 238.061 1428.56 L 237.922 1139.05 C 237.904 1108.31 233.455 1070.91 273.83 1059.91 C 296.822 1053.65 340.878 1057.01 366.972 1057.09 C 431.556 953.659 511.47 851.635 580.285 749.792 C 556.99 750.373 531.215 749.825 507.701 749.819 L 366.972 749.792 L 366.972 599.91 L 752.208 599.91 C 752.162 568.72 752.609 537.287 752.208 506.145 L 493.733 506.145 z M 635.888 832.966 C 624.623 841.589 538.22 970.11 526.936 986.695 L 497.766 1029.52 C 491.629 1038.53 484.993 1049.14 477.77 1057.09 L 680.5 1057.09 L 838.957 1057.09 L 838.957 832.966 L 703.685 832.926 C 682.102 832.92 657.218 832.317 635.888 832.966 z M 937.495 832.966 L 937.495 1057.09 L 1381.66 1057.09 C 1368.4 1031.26 1343.15 999.86 1325.61 975.641 L 1222.15 832.966 C 1128.2 831.792 1031.63 832.969 937.495 832.966 z M 598.091 1363.62 C 541.898 1367.48 499.604 1416.37 503.88 1472.53 C 508.156 1528.69 557.365 1570.62 613.493 1565.92 C 669.028 1561.27 710.414 1512.7 706.183 1457.13 C 701.952 1401.56 653.689 1359.81 598.091 1363.62 z M 1436.33 1363.79 C 1380.81 1368.06 1339.44 1416.79 1344.22 1472.26 C 1349.01 1527.73 1398.13 1568.65 1453.55 1563.34 C 1508.24 1558.1 1548.5 1509.77 1543.78 1455.03 C 1539.05 1400.29 1491.11 1359.58 1436.33 1363.79 z" fill="rgb(0,0,0)" transform="translate(0,0)"></path>
<metadata><recraft-signature>{"signed_by": "recraft", "signature_b64": "EP46l2t0x5jc5YntwrLF/O69PH0s6ur39CZ5al4EbAHNqUJI4J5Oy3NjNHvecGvrIA5UELxBsCYRJl5ia7vmAg==", "signing_algo": "Ed25519", "generation_timestamp": 1775387975, "identifier": "aa689587-25a3-4b66-8f5e-65d8c2360935"}</recraft-signature></metadata></svg>