<svg xmlns="http://www.w3.org/2000/svg" height="512" preserveAspectRatio="none" style="display: block;" version="1.1" viewBox="0 0 2048 2048" width="512">
<path d="M 1165.07 663.598 C 1101.2 475.52 1241 242.683 1447.43 240.231 C 1476.75 234.206 1541.2 248.19 1568.52 261.086 C 1505.96 326.193 1427.58 409.319 1361.11 469.525 C 1382.97 494.894 1411.69 522.352 1435.73 546.044 L 1554.79 663.598 C 1572.23 648.758 1594.55 625.168 1611.33 608.4 L 1711.23 508.735 C 1725.78 494.303 1749.04 469.225 1764.49 457.686 C 1768.35 473.707 1774.32 490.094 1777.41 506.126 C 1821 732.067 1630.14 911.244 1408.44 872.739 C 1396.8 870.717 1384.73 867.839 1373.06 867.078 L 1371.32 866.975 C 1357.93 875.1 1323.21 913.069 1310.16 926.171 L 1239.32 996.475 C 1216.22 1019.62 1194.58 1042.09 1170.72 1064.48 C 1183.85 1085.67 1204 1103.54 1221.75 1121.28 C 1245.55 1094.9 1272.67 1070.77 1297.49 1045.21 L 1722.59 1473.38 C 1749.03 1499.52 1785.36 1524.54 1785.28 1565.15 C 1785.17 1616.72 1692.42 1687.27 1655.78 1725.31 C 1587.64 1796.04 1547.71 1756.22 1492.82 1702.18 L 1066.7 1278.21 C 1090.01 1258.43 1125.9 1219.21 1147.81 1196.42 C 1138.02 1186.38 1104.2 1152.97 1095.13 1146.38 C 1078.36 1158.44 1060.57 1179.68 1045.03 1194.25 C 990.687 1245.2 939.267 1299.88 886.176 1352.1 C 893.981 1377 898.832 1404.22 900.059 1430.25 C 904.333 1472.38 893.727 1528.11 877.708 1566.59 C 767.854 1830.41 399.256 1831.39 289.114 1565.1 C 183.333 1309.35 446.582 1046.45 679.442 1146.38 L 831.516 994.386 C 849.281 976.448 869.261 957.582 886.176 939.04 C 872.96 927.908 860.901 914.267 848.683 901.929 L 586.81 640.474 C 574.018 637.479 554.453 634.739 541.194 632.489 L 459.072 618.288 C 445.251 615.829 427.212 613.102 414.05 609.332 C 399.665 589.918 388.408 560.352 376.263 538.533 C 351.952 494.86 330.294 449.001 305.947 405.393 C 344.63 367.028 381.333 328.378 420.806 290.402 C 481.375 328.334 559.705 362.425 624.387 397.187 C 637.045 451.665 648.905 511.175 658.616 566.016 C 675.239 585.983 706.47 613.926 726.389 634.294 C 802.89 712.518 881.47 789.336 958.563 866.975 C 973.319 854.499 993.664 832.804 1007.72 818.72 L 1106.22 720.905 C 1122.89 704.356 1147.93 677.932 1165.07 663.598 z M 541.457 1367.8 C 523.116 1384.54 504.809 1403.81 487.1 1421.46 L 414.05 1493.53 C 436.31 1517.17 461.501 1540.71 484.586 1564.07 L 520.863 1600.53 C 526.001 1605.72 534.674 1615.24 539.918 1619.79 L 541.457 1619.34 L 619.741 1540.63 C 631.344 1528.88 655.759 1502.19 668.014 1493.53 C 633.339 1450.86 580.839 1406.99 541.457 1367.8 z" fill="rgb(0,0,0)" transform="translate(0,0)"></path>
<metadata><recraft-signature>{"signed_by": "recraft", "signature_b64": "gGLtGqsJGE9up50SJs0Ced2pp9duJ6GZQ20NK2m0Rbw1WJ+9QZUOj6AvT0B7u02oJKe+SqFAn1zdv8Vi3D62Aw==", "signing_algo": "Ed25519", "generation_timestamp": 1775388006, "identifier": "839399e4-1855-4956-ae90-542b88e7f524"}</recraft-signature></metadata></svg>