<svg xmlns="http://www.w3.org/2000/svg" height="512" preserveAspectRatio="none" style="display: block;" version="1.1" viewBox="0 0 2048 2048" width="512">
<path d="M 1475.38 378.47 C 1487.59 360.38 1500.62 340.906 1522.17 334.145 C 1574.7 330.073 1513.79 397.974 1500.83 408.873 C 1486.53 409.38 1474.29 407.913 1459.08 408.873 C 1453.62 433.277 1442.1 460.499 1432.79 484.101 C 1445.11 508.432 1464.73 535.722 1475.38 559.331 C 1652.56 500.819 1801.37 681.232 1706.87 834.517 C 1618.21 978.318 1394.93 941.622 1361.21 782.863 C 1349.79 802.938 1332.46 809.527 1311.63 815.668 C 1305.22 829.817 1302.68 840.763 1294.96 856.121 C 1316.56 864.38 1314.45 867.019 1304.39 886.36 C 1277.04 874.489 1243.15 866.336 1217.92 851.707 C 1219.14 844.539 1220.93 839.993 1223.35 833.149 C 1236.01 835.07 1256.85 842.073 1269.76 845.997 C 1274.52 832.375 1278.18 820.624 1281.83 806.722 C 1237.7 786.466 1234.79 741.078 1262.07 706.438 C 1252.83 695.006 1241.68 683.524 1231.75 672.431 L 1159.8 592.993 C 1138.41 569.332 1114.36 537.719 1090.8 517.363 C 1082.99 532.85 1079.29 549.747 1071.22 565.659 C 1178.89 614.397 1219.54 761.368 1145.99 851.707 C 1291.91 891.812 1391.53 962.069 1509.47 1056.19 C 1553.04 1090.97 1547.55 1080.15 1599.62 1094.12 C 1717.67 1125.77 1831.53 1151.67 1856.51 1288.27 C 1868.37 1290.89 1873.51 1291.69 1883.83 1297.67 C 1885.4 1315.21 1883.5 1336.95 1883.95 1354.88 C 1886.46 1453.12 1847.28 1482.09 1752.91 1482.08 L 1692.84 1482 C 1693.5 1505.9 1685.07 1530.8 1674.74 1552.14 C 1594.87 1717.24 1352.84 1704.7 1289.79 1525.84 C 1285.04 1508.9 1281.52 1496.63 1281.83 1479.13 L 773.392 1479.13 C 725.379 1758.57 361.33 1704.05 351.96 1479.13 C 313.044 1478.98 278.962 1483.46 242.473 1465.9 C 173.912 1432.92 125.718 1299.53 206.358 1274.03 C 197.298 1215.94 192.513 1099.03 238.841 1061.7 C 250.079 1052.09 285.239 1048.41 292.402 1036.11 C 319.123 990.239 346.987 924.16 376.41 882.832 C 413.457 873.038 474.544 867.867 512.675 864.145 C 614.105 854.244 719.228 845.567 821.091 845.997 C 734.812 677.806 859.275 501.943 1038.42 553.128 C 1046.6 522.198 1063.46 480.705 1075.74 450.949 C 1055.94 451.302 1035.46 450.995 1015.61 450.949 C 988.336 467.854 932.101 461.231 899.107 459.794 C 869.922 458.523 877.49 415.802 877.235 395.759 C 876.924 371.371 871.968 341.406 905.415 341.463 C 934.2 341.513 963.917 340.015 992.668 342.209 C 1023.72 344.588 1015.7 391.478 1015.61 413.909 L 1090.8 413.909 C 1093.97 401.12 1098.91 390.556 1104.04 378.47 C 1086.72 377.962 1047.21 386.364 1048.73 363.817 C 1049.26 355.931 1048.77 348.984 1059.14 348.784 C 1084.15 348.304 1198.66 336.404 1204.3 368.224 C 1208.59 392.465 1158.71 385.297 1140.96 385.162 C 1132.17 401.26 1119.28 432.865 1117.07 450.949 C 1210.96 450.784 1309.12 462.656 1400.55 460.685 C 1407.24 439.855 1413.82 420.772 1421.33 400.222 L 1381.7 400.222 C 1378.39 386.028 1377.88 381.234 1381.7 366.927 C 1405.55 366.387 1450.08 374.579 1475.38 378.47 z M 1117.07 487.206 C 1174.67 552.627 1235.91 616.383 1293.97 681.63 C 1315.12 705.4 1324.37 653.637 1332.25 634.714 C 1350.19 590.102 1371.46 544.513 1388.58 500.18 C 1313.29 491.449 1235.48 490.993 1159.8 487.415 C 1144.92 486.715 1131.97 485.902 1117.07 487.206 z M 1416.18 523.747 C 1393.09 582.395 1362.78 641.647 1341.04 698.607 C 1345.95 700.845 1352.81 703.815 1357.3 706.438 C 1357.3 702.712 1357.52 696.56 1357.3 693.044 C 1368.96 646.49 1403.31 599.851 1445.12 575.635 C 1434.69 558.878 1425.48 538.345 1416.18 523.747 z M 974.259 586.999 C 855.28 590.454 793.516 726.643 856.208 823.295 C 860.022 829.175 866.231 839.736 869.214 845.997 C 922.511 845.652 1047.9 841.841 1098.47 851.707 C 1125.48 814.183 1141.99 787.103 1140.96 739.688 C 1140.98 676.161 1109.29 634.765 1056.78 602.259 C 1045.9 635.023 1025.59 681.456 1018.15 712.556 C 1046 770.32 959.742 792.628 946.661 747.898 C 938.405 719.668 955.568 699.672 983.324 698.607 C 994.496 665.227 1013.28 623.151 1022.31 590.586 C 1007.52 587.63 989.372 584.842 974.259 586.999 z M 1536.14 586.999 C 1522.7 588.484 1513.41 589.793 1500.83 594.8 C 1502.82 603.471 1545.38 685.249 1555.98 701.232 C 1622.25 728.139 1564.4 795.171 1518.54 756.037 L 1395.65 756.037 C 1402.44 802.422 1431.88 846.833 1475.38 866.125 C 1536.68 910.628 1642.74 871.993 1676.73 806.023 C 1731.03 700.639 1652.22 582.934 1536.14 586.999 z M 1465 610.069 C 1426.05 635.41 1400.41 671.375 1392.86 717.412 L 1449.77 717.412 L 1513.78 717.412 L 1522.17 706.438 C 1514.57 692.016 1475.35 621.354 1465 610.069 z M 839.153 911.737 C 771.878 911.164 585.154 920.592 519.653 943.569 C 508.482 959.811 472.895 1025.37 467.163 1043.23 C 473.827 1052.1 502.112 1081.08 511.036 1089.63 C 521.868 1090.46 528.261 1090.68 539.123 1089.63 L 870.973 1089.69 C 881.497 1089.72 901.684 1090.41 911.295 1089.63 L 911.295 911.737 L 839.153 911.737 z M 970.893 911.737 L 970.893 1089.63 L 1345.81 1089.66 C 1360.55 1089.66 1378.45 1090.19 1392.86 1089.63 C 1395.21 1087.64 1398.37 1085.13 1400.55 1083.09 C 1417.79 1063.1 1389.59 1047.76 1372.79 1035.61 C 1231.8 933.655 1150.09 910.518 970.893 911.737 z M 1486.16 1349.77 C 1426.03 1350.28 1377.74 1399.51 1378.38 1459.64 C 1379.02 1519.77 1428.36 1567.95 1488.49 1567.17 C 1548.42 1566.4 1596.42 1517.25 1595.78 1457.32 C 1595.14 1397.38 1546.1 1349.27 1486.16 1349.77 z M 546.127 1351.22 C 486.579 1359.44 444.915 1414.3 452.991 1473.87 C 461.066 1533.44 515.832 1575.23 575.418 1567.29 C 635.203 1559.33 677.165 1504.34 669.063 1444.58 C 660.961 1384.81 605.874 1342.98 546.127 1351.22 z" fill="rgb(0,0,0)" transform="translate(0,0)"></path>
<metadata><recraft-signature>{"signed_by": "recraft", "signature_b64": "+lFUgv2i2Gf512rzkthKd29mB4SuSWVXN+6KZc/MmmUO7xfrYRq5O3lHg5ITJd6jFiEwPMqajgezJyiRkYj5DA==", "signing_algo": "Ed25519", "generation_timestamp": 1775388676, "identifier": "1020fcd0-ffa2-444f-9682-2a3a53ab1cc7"}</recraft-signature></metadata></svg>