<svg xmlns="http://www.w3.org/2000/svg" height="512" preserveAspectRatio="none" style="display: block;" version="1.1" viewBox="0 0 2048 2048" width="512">
<path d="M 1243.79 693.701 C 1243.49 645.903 1259.34 638.191 1288.18 602.923 L 1509.34 326.367 C 1539.43 288.314 1542.14 272.952 1594.58 269.405 C 1644.49 269.582 1684.7 314.253 1686.59 362.502 C 1689.03 425.04 1652.03 442.974 1611.35 480.555 L 1382.31 692.342 C 1351.42 720.954 1340.63 742.397 1297.6 744.228 C 1293.74 747.688 1290.24 751.477 1286.7 755.248 L 1130.65 918.018 C 1111.4 937.919 1091.76 957.397 1073.11 977.857 L 1462.13 1380.14 C 1505.23 1424.96 1553.28 1470.83 1594.58 1516.46 C 1614.91 1498.2 1637.36 1465.86 1658.73 1451.18 C 1694.22 1426.79 1733.03 1471.38 1714.71 1498.03 C 1696.69 1524.23 1669.6 1544.77 1649.46 1569.33 L 1648.34 1570.7 C 1684.11 1606.22 1725.27 1647.35 1759.14 1684.18 C 1747.19 1691.91 1712.64 1726.55 1703.7 1738.35 C 1687.77 1716.55 1612.98 1638.65 1594.58 1624.87 C 1572.83 1644.56 1544.44 1682.33 1523.93 1697.8 C 1480.65 1730.45 1437.1 1672 1486.18 1630.98 C 1504.18 1615.94 1523.92 1587.25 1545.57 1570.7 C 1539.8 1563.12 1534.5 1557.67 1527.84 1550.9 L 1256.74 1274.11 C 1182.84 1197.86 1092.24 1112.67 1024.52 1032.8 C 985.099 1064.24 931.247 1129.99 893.78 1168.24 L 503.897 1570.7 C 525.87 1596.24 559.705 1622.58 579.362 1648.32 C 599.263 1685.42 558.497 1719.78 529.819 1699.5 C 504.388 1681.51 478.607 1646.92 454.504 1626.03 L 453.148 1624.87 C 417.023 1656.84 378.352 1703.25 343.484 1738.35 C 327.948 1720.52 307.663 1702.9 291.573 1684.18 C 324.611 1645.57 366.612 1610.25 400.493 1570.7 C 379.203 1549.45 356.341 1531.24 337.081 1507.93 C 311.134 1476.52 355.354 1430.12 385.222 1451.93 C 408.474 1468.9 431.004 1496.54 453.148 1516.46 C 481.898 1482.84 524.341 1443.04 555.609 1410.56 L 918.119 1033.66 C 934.433 1016.85 957.956 995.15 972.609 977.857 L 786.666 784.955 C 774.319 772.045 759.728 755.928 746.563 744.228 C 706.025 742.85 685.328 710.09 655.711 682.808 L 429.741 475.573 C 396.468 445.593 368.728 430.543 362.808 383.153 C 349.714 278.321 476.276 225.743 535.347 317.648 C 540.707 325.986 552.739 340.03 558.833 347.828 L 736.596 572.448 C 775.051 619.729 798.541 632.962 805.128 693.701 C 811.975 702.375 822.652 713.031 830.48 721.219 L 1024.52 923.836 C 1042.47 903.204 1064 882.069 1083.12 862.23 L 1195.11 745.079 C 1211.54 727.707 1227.93 711.67 1243.79 693.701 z" fill="rgb(0,0,0)" transform="translate(0,0)"></path>
<metadata><recraft-signature>{"signed_by": "recraft", "signature_b64": "pauLNRJzPtuSLCKNB/HpI0MQoaVCh6hoKlZbclUkpYBwHjkgO7RuXkRyLuV4mO27GYMsa68teGeT1iMYTXosBg==", "signing_algo": "Ed25519", "generation_timestamp": 1775387950, "identifier": "ae77583c-45d4-463b-96bf-36d84e663c07"}</recraft-signature></metadata></svg>