<svg xmlns="http://www.w3.org/2000/svg" height="512" preserveAspectRatio="none" style="display: block;" version="1.1" viewBox="0 0 2048 2048" width="512">
<path d="M 745.851 634.001 C 745.162 558.769 752.825 551.689 818.232 524.974 L 1144.41 392.142 C 1164.97 383.797 1185.35 373.965 1207.34 371.357 C 1252.7 366.459 1397.97 413.83 1450.12 429.101 L 1552.04 459.098 C 1637.96 483.493 1665.83 477.809 1681.5 576.135 C 1655.07 588.796 1624.8 600 1597.55 611.173 L 1370.52 705.405 C 1315.83 728.439 1280.41 745.765 1222.24 758.026 C 1146.33 762.526 1104.91 744.113 1034.55 724.449 L 873.99 678.334 C 828.105 664.682 790.672 650.632 745.851 634.001 z" fill="rgb(0,0,0)" transform="translate(0,0)"></path>
<path d="M 818.882 1335.02 C 816.78 1260.15 847.379 1160.39 902.345 1108.31 L 1210.14 820.725 C 1215.74 815.482 1242.32 788.776 1247.23 787.066 C 1373.36 743.207 1508.51 684.424 1632.73 630.963 C 1739.04 689.437 1858.76 775.524 1887.24 900.94 C 1878.31 905.084 1866.03 909.338 1856.66 913.026 L 999.242 1260.5 C 943.675 1282.66 871.937 1308.38 818.882 1335.02 z" fill="rgb(0,0,0)" transform="translate(0,0)"></path>
<path d="M 160.45 1144.22 C 172.714 1057.22 237.758 968.026 306.251 917.419 C 327.002 902.088 361.968 889.066 386.136 878.884 L 605.339 784.968 C 677.326 754.038 750.214 722.468 822.799 692.994 L 825.429 692.851 C 843.24 703.814 868 708.898 888.545 714.702 L 1061.58 764.266 C 1107.13 777.516 1146.37 791.752 1194.79 789.125 C 1185.32 800.56 1170.29 814.236 1159.12 824.532 L 901.975 1064.47 C 817.412 1143.29 791.76 1218.61 785.095 1335.02 C 721.613 1318.65 656.882 1295.53 593.735 1276.53 C 451.613 1231.62 304.002 1184.5 160.45 1144.22 z" fill="rgb(0,0,0)" transform="translate(0,0)"></path>
<path d="M 690.875 1379.89 C 781.651 1399.35 776.949 1426.21 865.669 1389.43 L 1728.7 1037.96 C 1780.12 1017 1841.29 990.741 1893.13 972.954 L 1894.42 973.981 C 1886.99 1096.52 1843 1182.63 1720.96 1228.23 L 1721.16 1278.58 C 1721.47 1351.38 1676.73 1325.69 1675.4 1305.49 C 1674.17 1286.79 1675.05 1266.36 1675.14 1247.55 C 1650.07 1256.92 1624.03 1268.45 1599.11 1278.69 L 984.783 1531.79 C 984.81 1548.63 988.167 1615.46 979.438 1625.21 C 966.502 1639.67 944.383 1633.78 939.889 1614.84 C 936.526 1600.67 938.735 1567.17 938.816 1551.17 C 812.969 1589.13 860.876 1608.91 724.599 1567.83 L 490.638 1495.54 C 455.008 1484.42 404.305 1464.4 367.983 1460.19 C 368.585 1479.32 368.579 1505.98 367.983 1524.91 C 352.818 1540.28 335.265 1539.78 322.756 1521.78 C 321.689 1498.95 322.708 1467.96 322.756 1444.64 C 289.586 1437.8 260.482 1420.91 234.874 1399.31 C 179.499 1352.45 151.974 1285.15 153.012 1213.24 C 183.16 1222.07 212.961 1231.81 243.072 1240.6 L 243.072 1320.49 L 358.405 1353.44 L 358.405 1276.53 C 410.721 1284.97 520.588 1323.17 571.215 1340.64 C 572.338 1365.42 571.185 1398.91 571.215 1424.45 C 603.541 1436.81 658.03 1452.95 690.875 1460.19 L 690.875 1379.89 z" fill="rgb(0,0,0)" transform="translate(0,0)"></path>
<metadata><recraft-signature>{"signed_by": "recraft", "signature_b64": "12UrMqz1S+vFdCoVkx462R6+zlMMV6ojsO6iEx/Nf7vmOoy3KZ4zxXp7WheeOnqDcc3ZdE6tfAwAp3R10SBjAQ==", "signing_algo": "Ed25519", "generation_timestamp": 1775388762, "identifier": "ed449996-f255-4193-a4a9-7f84401efb39"}</recraft-signature></metadata></svg>