<svg xmlns="http://www.w3.org/2000/svg" height="512" preserveAspectRatio="none" style="display: block;" version="1.1" viewBox="0 0 2048 2048" width="512">
<path d="M 708.001 731.373 L 707.972 634.581 C 707.875 568.702 704.453 520.786 752.288 465.974 C 784.027 429.605 826.528 409.379 874.645 406.287 L 1133.08 406.224 C 1297.15 406.171 1339.86 476.723 1339.87 632.01 L 1339.83 731.373 C 1311.78 731.316 1282.23 733.752 1254.39 731.373 L 1254.45 623.862 C 1254.48 561.765 1255.03 498.891 1175.64 491.323 C 1077.2 490.279 978.405 492.16 879.951 491.257 C 842.537 490.305 804.122 523.039 796.177 559.017 C 790.568 584.416 792.765 700.074 794.15 731.373 L 708.001 731.373 z" fill="rgb(0,0,0)" transform="translate(0,0)"></path>
<path d="M 1425.21 1604.7 L 1425.21 816.932 L 1564.95 816.92 C 1676.79 817.57 1769.35 893.604 1799.87 999.75 C 1810.96 1038.32 1809.38 1073.28 1809.35 1112.57 L 1809.31 1359.37 C 1808.7 1428.25 1784.77 1483.66 1735.7 1531.77 C 1666.77 1597.22 1606.28 1604.7 1517.96 1604.74 L 1425.21 1604.7 z" fill="rgb(0,0,0)" transform="translate(0,0)"></path>
<path d="M 708.001 1604.7 L 708.001 816.932 L 1339.83 816.932 L 1339.76 1531.93 C 1339.69 1551.23 1341.24 1587.41 1339.83 1604.7 L 708.001 1604.7 z M 794.15 904.856 L 794.15 1080.98 L 881.205 1080.98 L 881.205 904.856 L 794.15 904.856 z" fill="rgb(0,0,0)" transform="translate(0,0)"></path>
<path d="M 417.757 1594.36 C 280.611 1550.86 240.992 1452.02 241.027 1322.97 L 241.028 1115.88 C 241.023 1084.58 239.731 1050.35 245.486 1019.74 C 267.018 905.253 351.891 836.621 461.528 816.932 C 475.536 818.23 497.703 817.004 512.815 816.977 L 622.087 816.932 L 622.087 1604.7 L 536.119 1604.73 C 490.068 1604.75 462.926 1607 417.757 1594.36 z" fill="rgb(0,0,0)" transform="translate(0,0)"></path>
<metadata><recraft-signature>{"signed_by": "recraft", "signature_b64": "KezJl7ir3t/IUWuaBadEkXB6IQaRMHp4wXNl0HDXTadP/w/bm2w20KJEQ/9SskBZg6CVNGdnVmm8fAVC+cBIDQ==", "signing_algo": "Ed25519", "generation_timestamp": 1775387982, "identifier": "076a4e4d-f477-4b6c-8f67-7375a03eb64a"}</recraft-signature></metadata></svg>