<svg xmlns="http://www.w3.org/2000/svg" height="512" preserveAspectRatio="none" style="display: block;" version="1.1" viewBox="0 0 2048 2048" width="512">
<path d="M 982.572 1530.14 C 976.873 1523.39 971.953 1516.51 967.03 1509.17 C 734.637 1162.7 693.222 539.288 971.47 215.016 C 987.085 196.818 998.894 184.041 1023.58 181.35 C 1078.12 178.592 1156.96 324.264 1178 369.319 C 1330.21 709.637 1284.51 1205.9 1080.1 1510.19 C 1058.18 1542.8 1065.85 1561.78 1065.84 1602.16 L 1065.87 1740.97 L 1617.99 1740.97 L 1617.99 1825.21 L 579.5 1825.21 L 433.174 1825.21 L 433.174 1740.97 L 638.881 1740.97 L 638.881 1298.33 L 723.569 1298.33 L 723.569 1740.97 L 982.572 1740.97 L 982.572 1530.14 z" fill="rgb(0,0,0)" transform="translate(0,0)"></path>
<metadata><recraft-signature>{"signed_by": "recraft", "signature_b64": "bA9XrAtuHsFISA0SVHuweaWZcMQkTU+/07Es5O+IZwjwhf9vvqbfkFEenAkOV3R3KH3lLkeYC1hI9m50wm4bBA==", "signing_algo": "Ed25519", "generation_timestamp": 1775387969, "identifier": "aeb93d60-04cb-4dbc-9c2b-05cf1c48072f"}</recraft-signature></metadata></svg>