<svg xmlns="http://www.w3.org/2000/svg" height="512" preserveAspectRatio="none" style="display: block;" version="1.1" viewBox="0 0 2048 2048" width="512">
<path d="M 501.784 254.615 L 664.25 254.615 C 707.706 254.623 753.157 253.838 796.332 254.615 C 811.909 268.812 828.252 287.378 843.866 302.689 L 1088.03 545.778 C 1104.63 562.336 1120.3 578.612 1137.54 594.529 C 1138.82 610.781 1137.58 650.795 1137.57 668.831 L 1137.54 824.535 C 1123.68 837.677 1104.37 856.049 1092.15 870.335 C 1109.96 891.303 1138.45 917.882 1158.5 937.97 L 1263.96 1044.48 C 1329.98 1110.15 1392.04 1176.84 1459.38 1241.86 C 1480.24 1220.13 1542.77 1152.52 1566.09 1138.04 C 1574.68 1151.44 1594.12 1168.73 1606.14 1180.97 L 1713.32 1288.94 C 1725.32 1300.95 1762.11 1336.33 1769.99 1348.39 C 1770.27 1364.62 1773.14 1496.11 1766.74 1503.58 C 1749.23 1524.01 1728.19 1543.01 1709.29 1562.22 L 1566.09 1707.43 C 1545.04 1687.79 1522.05 1663.78 1500.76 1643.3 C 1474.51 1667.07 1446.63 1697.85 1421.1 1723.27 L 1383.96 1760.48 C 1314.68 1687.6 1240.3 1617.19 1171 1544.05 C 1200.9 1515.96 1235.71 1478.16 1265.01 1448.37 C 1228.73 1414.35 1189.25 1373.58 1154.01 1338.21 L 1017.06 1201.64 C 974.549 1158.93 928.931 1118.76 887.779 1074.73 C 850.024 1113.04 863.3 1114.4 807.71 1114.42 L 655.588 1114.42 C 640.78 1114.43 623.849 1115.11 609.388 1114.42 C 594.207 1100.76 573.709 1077.83 558.561 1062.45 L 452.378 954.494 C 394.614 894.97 333.949 836.963 276.759 776.447 C 275.433 678.268 280.103 577.209 276.759 479.561 C 283.919 470.245 297.836 457.591 306.658 448.767 L 452.473 304.077 C 466.139 290.173 487.807 266.63 501.784 254.615 z M 564.403 474.72 C 537.706 503.091 509.764 528.134 482.84 555.672 C 493.225 589.585 506.072 633.691 517.914 666.273 C 529.062 669.522 627.604 692.303 631.943 691.161 L 686.44 639.728 C 693.992 632.604 709.589 618.777 715.319 611.127 C 703.623 573.775 694.396 533.535 679.128 497.6 C 659.206 490.837 588.333 478.363 564.403 474.72 z" fill="rgb(0,0,0)" transform="translate(0,0)"></path>
<metadata><recraft-signature>{"signed_by": "recraft", "signature_b64": "Y4csnqpyYdBtpW5b8cC/WzXn5+1o58L9Uduv5KmFNFpSNwGARg0Cqu+SM8NhoM7aBrv+IyFjyWWkKeXfv6i4DA==", "signing_algo": "Ed25519", "generation_timestamp": 1775387995, "identifier": "9b31d2b7-f19b-4a27-a69a-ad4818f41512"}</recraft-signature></metadata></svg>